<svg xmlns="http://www.w3.org/2000/svg" width="32" height="32" viewBox="0 0 32 32"><defs><clipPath id="a"><circle cx="16" cy="16" r="16" fill="#2d4e64"/></clipPath><clipPath id="c"><rect width="32" height="32"/></clipPath></defs><g id="b" clip-path="url(#c)"><circle cx="16" cy="16" r="16" fill="#2d4e64"/><g clip-path="url(#a)"><path d="M-50-1021c0-4.971,4.926-9,11-9s11,4.029,11,9-4.925,9-11,9S-50-1016.03-50-1021Zm5-16a6,6,0,0,1,6-6,6,6,0,0,1,6,6,6,6,0,0,1-6,6A6,6,0,0,1-45-1037Z" transform="translate(55 1049)" fill="#fff"/></g></g></svg>
